<?xml version="1.0" encoding="utf-8"?>
<!-- Generated by IcoMoon.io -->
<!DOCTYPE svg PUBLIC "-//W3C//DTD SVG 1.1//EN" "http://www.w3.org/Graphics/SVG/1.1/DTD/svg11.dtd">
<svg version="1.1" xmlns="http://www.w3.org/2000/svg" xmlns:xlink="http://www.w3.org/1999/xlink" width="16" height="16" viewBox="0 0 16 16">
<g id="icomoon-ignore">
	<line stroke-width="1" x1="" y1="" x2="" y2="" stroke="#449FDB" opacity=""></line>
</g>
	<path d="M8 0c4.418 0 8 3.582 8 8s-3.582 8-8 8-8-3.582-8-8 3.582-8 8-8zM8 14.5c3.59 0 6.5-2.91 6.5-6.5s-2.91-6.5-6.5-6.5-6.5 2.91-6.5 6.5 2.91 6.5 6.5 6.5zM3.293 7.293l4-4c0.391-0.391 1.024-0.391 1.414 0s0.391 1.024 0 1.414l-2.293 2.293h5.586c0.552 0 1 0.448 1 1s-0.448 1-1 1h-5.586l2.293 2.293c0.391 0.391 0.391 1.024 0 1.414-0.195 0.195-0.451 0.293-0.707 0.293s-0.512-0.098-0.707-0.293l-4-4c-0.39-0.391-0.39-1.024 0-1.414z" fill="#FF8800"></path>
</svg>
